<?xml version="1.0" encoding="UTF-8" standalone="no"?>
<svg
   width="256"
   height="256"
   fill="none"
   viewBox="38.25 42.5 179.5 179.5"
   version="1.1"
   id="svg4"
   sodipodi:docname="icon.svg"
   inkscape:export-filename="icon-128x128.png"
   inkscape:export-xdpi="48"
   inkscape:export-ydpi="48"
   inkscape:version="1.4.4 (dcaf3e7, 2026-05-05)"
   xmlns:inkscape="http://www.inkscape.org/namespaces/inkscape"
   xmlns:sodipodi="http://sodipodi.sourceforge.net/DTD/sodipodi-0.dtd"
   xmlns="http://www.w3.org/2000/svg"
   xmlns:svg="http://www.w3.org/2000/svg">
  <sodipodi:namedview
     id="namedview1"
     pagecolor="#ffffff"
     bordercolor="#000000"
     borderopacity="0.25"
     inkscape:showpageshadow="2"
     inkscape:pageopacity="0.0"
     inkscape:pagecheckerboard="0"
     inkscape:deskcolor="#d1d1d1"
     inkscape:export-bgcolor="#ffffffff"
     inkscape:zoom="3.4375"
     inkscape:cx="128"
     inkscape:cy="128.14545"
     inkscape:window-width="1787"
     inkscape:window-height="1186"
     inkscape:window-x="0"
     inkscape:window-y="30"
     inkscape:window-maximized="0"
     inkscape:current-layer="svg4" />
  <defs
     id="defs4" />
  <rect
     style="fill:#ffffff;stroke-width:1.15132;stroke-linecap:round;stroke-linejoin:round"
     id="rect1"
     width="179.5"
     height="179.5"
     x="38.25"
     y="42.5" />
  <path
     stroke="#777"
     stroke-linejoin="round"
     stroke-width="4"
     d="m 118,62 10,-10 10,10 -3,12 h -14 z"
     style="fill:none;fill-opacity:1;stroke:#2b3d4f;stroke-width:3;stroke-dasharray:none;stroke-opacity:1"
     id="path1" />
  <g
     style="fill:none;fill-opacity:1;stroke:#808d8e;stroke-width:2;stroke-linecap:round;stroke-linejoin:round;stroke-dasharray:none;stroke-opacity:1"
     id="g3">
    <path
       d="m 93.5,71.15 9.85,-4.92 4.91,12.08 -8.05,4.02 z m 11.64,-5.61 10.46,-3.4 3.07,12.67 -8.56,2.78 z m -45.59,43.2 5.23,-9.68 10.96,7.06 -4.27,7.92 z m 6.22,-11.27 6.65,-8.76 9.75,8.66 -5.44,7.17 z m 7.86,-10.2 7.87,-7.68 8.37,10 -6.44,6.29 z m 9.22,-8.87 8.96,-6.37 6.72,11.17 -7.33,5.22 z m -30.65,54.94 2.12,-10.8 12.57,3.49 -1.74,8.83 z m 2.73,-12.61 3.73,-10.35 11.89,5.34 -3.05,8.47 z m 10.09,15.97 v 11 h -13 v -12.5 z m 0,25.96 v 11 h -13 v -11 z m 0,-12.98 v 11 h -13 v -11 z m 0,25.96 v 11 h -13 v -11 z m 0,12.98 v 11 h -13 v -11 z m 0,12.98 v 11 h -13 v -11 z"
       id="path2" />
    <path
       d="m 93.5,71.15 9.85,-4.92 4.91,12.08 -8.05,4.02 z m 11.64,-5.61 10.46,-3.4 3.07,12.67 -8.56,2.78 z m -45.59,43.2 5.23,-9.68 10.96,7.06 -4.27,7.92 z m 6.22,-11.27 6.65,-8.76 9.75,8.66 -5.44,7.17 z m 7.86,-10.2 7.87,-7.68 8.37,10 -6.44,6.29 z m 9.22,-8.87 8.96,-6.37 6.72,11.17 -7.33,5.22 z m -30.65,54.94 2.12,-10.8 12.57,3.49 -1.74,8.83 z m 2.73,-12.61 3.73,-10.35 11.89,5.34 -3.05,8.47 z m 10.09,15.97 v 11 h -13 v -12.5 z m 0,25.96 v 11 h -13 v -11 z m 0,-12.98 v 11 h -13 v -11 z m 0,25.96 v 11 h -13 v -11 z m 0,12.98 v 11 h -13 v -11 z m 0,12.98 v 11 h -13 v -11 z"
       transform="matrix(-1,0,0,1,255.86696,-1.446623e-5)"
       id="path3" />
  </g>
  <path
     d="m 93.53,177.74 q 0,7.32 0.98,12.78 a 26,26 0 0 0 3.25,9.1 14.5,14.5 0 0 0 5.86,5.46 q 3.58,1.8 8.87,1.79 5.2,0 8.78,-1.8 a 14.3,14.3 0 0 0 5.94,-5.44 26,26 0 0 0 3.26,-9.11 q 0.97,-5.46 0.97,-12.78 0,-5.61 -0.73,-10.82 a 29,29 0 0 0 -2.85,-9.35 16,16 0 0 0 -5.77,-6.6 q -3.66,-2.43 -9.6,-2.43 -5.94,-0.01 -9.68,2.44 a 17,17 0 0 0 -5.78,6.59 30,30 0 0 0 -2.77,9.35 78,78 0 0 0 -0.73,10.82 m -9.36,0 q 0,-6.5 2.53,-12.04 a 35,35 0 0 1 6.59,-9.6 31,31 0 0 1 9.1,-6.34 24,24 0 0 1 10.1,-2.36 q 5.37,0 10.41,2.36 a 29,29 0 0 1 9.11,6.34 31,31 0 0 1 6.35,9.6 29.5,29.5 0 0 1 2.44,12.04 q 0,5.7 -2.2,11.15 a 32,32 0 0 1 -6.02,9.68 30,30 0 0 1 -9.03,6.83 24,24 0 0 1 -11.06,2.6 25.6,25.6 0 0 1 -11.31,-2.51 30,30 0 0 1 -9.03,-6.68 32,32 0 0 1 -7.98,-21.07 m 56.53,-0.08 q 1.62,0.33 3.42,0.49 1.8,0.16 3.17,0.16 6.01,0 9.36,-3.5 3.4,-3.57 3.41,-10.74 0,-4.14 -0.81,-6.91 a 9.3,9.3 0 0 0 -7.16,-6.75 30,30 0 0 0 -6.67,-0.65 46,46 0 0 0 -4.72,0.24 z m -17.65,28 9.51,-0.01 V 150 h -9.12 l -2.7,-1.14 h 20.37 l 2.27,-0.16 h 2.2 q 1.14,-0.09 2.28,-0.08 4.65,0 8.54,1.14 3.99,1.05 6.84,3.09 a 15,15 0 0 1 4.55,4.88 12.6,12.6 0 0 1 1.63,6.35 q 0,3.66 -1.87,6.5 -1.87,2.85 -4.96,4.8 a 25,25 0 0 1 -7.25,3.01 34,34 0 0 1 -11.47,0.9 q -1.79,-0.25 -3.17,-0.49 v 26.85 h 9.03 v 1.14 h -29.47 z"
     aria-label="OP"
     style="fill:#3b556e;stroke-width:2.08018;stroke-linecap:round;stroke-linejoin:round"
     id="path4" />
</svg>
